<svg viewBox="0 0 37 40" fill="none" xmlns="http://www.w3.org/2000/svg">
  <path d="M0.75002 3.36311C0.748068 2.6966 0.888637 2.12144 1.08387 2.00302V1.99626C2.25137 1.28576 9.02211 0.592188 9.98267 0.781653C12.1049 1.20118 14.2271 1.62409 16.3493 2.04362L21.5786 3.07891C25.4999 3.85369 29.4876 2.60864 30.8308 2.12144C31.15 2.00641 31.4712 2.09099 31.7816 2.3718L35.2168 5.48782C35.5379 5.78217 35.7585 6.80054 35.7497 7.95087C35.7107 12.8262 35.5887 25.4527 35.3368 30.6866C36.0352 41.3516 18.9117 38.5055 16.8315 38.5258C13.5718 38.5527 10.313 38.583 7.05323 38.6134L7.01608 38.6137C5.87493 38.6239 4.71328 38.6239 3.6229 37.4194C2.53154 36.2183 1.50265 33.6031 1.08778 29.7799C0.840804 27.4996 0.828114 24.9892 0.819328 22.5397L0.75002 3.36311Z" stroke="#1C1C3C" stroke-width="1.5" stroke-miterlimit="10"/>
  <path d="M31.75 1.75C32.0232 4.01166 32.0232 6.27332 31.75 8.53829C33.1694 9.32755 34.4698 7.79215 35.75 5.882" stroke="#1C1C3C" stroke-width="1.5" stroke-miterlimit="10"/>
  <path d="M22.3275 26.0353C22.8943 25.3973 23.7998 24.7841 24.1348 25.0571L24.4992 25.3548L24.8931 25.89C25.0329 26.1452 24.9336 26.5846 24.6428 26.7512C24.5323 27.3857 24.19 27.9031 23.6894 28.3249C23.5201 28.6793 23.2772 28.977 22.9864 29.257C22.5852 29.732 21.93 30.2884 21.3373 30.5082L21.1202 30.7137C20.4061 30.8307 19.6993 30.8626 18.9521 30.8484C18.573 30.852 18.2417 30.7527 17.973 30.5153C17.4761 30.455 17.0712 30.1927 16.7105 29.8667C16.4381 29.8418 16.2283 29.7355 16.0737 29.5512C14.8295 28.6297 12.8897 26.3472 12.4333 25.1209L12.0542 24.093C11.9437 23.7917 11.8591 23.5153 11.7818 23.1715L11.6235 22.4733L11.5352 20.4495L11.6161 18.8581C11.6235 18.6844 11.756 17.8373 11.756 17.8373C11.9695 17.6885 11.9253 17.2667 11.9585 16.9725L12.2603 16.3381C12.4038 16.0369 12.4885 15.8065 12.5695 15.4627L12.9081 14.7645L13.1916 14.1726L14.6933 12.7265C14.8406 12.6485 15.1387 12.5316 15.2528 12.3898C15.459 12.1417 15.7019 12.1204 15.9559 11.9786L16.4712 11.688C17.2111 11.2733 17.9951 11.0217 18.8491 11.05C18.9816 11.0536 19.2208 10.9189 19.3202 10.8693L21.0281 10.8516C21.1202 10.8516 21.341 10.9508 21.4146 10.9756L22.4747 11.3265C22.6845 11.3974 22.8244 11.5214 22.9827 11.6455C23.752 12.2551 24.0722 12.8647 23.9213 13.8359L23.4502 14.2328L22.5925 14.2824C22.4085 14.0946 22.2318 13.9705 22.0036 13.8607L21.1238 13.446C20.6196 13.2085 19.4454 13.3148 18.665 13.5381C18.3521 13.6267 17.9288 13.6374 17.6675 13.8075C17.2074 14.1052 16.9865 13.9918 16.5301 14.4029L16.0921 14.7999L14.9032 15.9908L14.594 16.6606L14.3805 17.3447C14.1449 17.7027 14.1007 18.011 14.0234 18.4292L13.9056 19.0814C13.6774 20.3432 13.648 21.6014 13.9351 22.8702L14.1523 23.5153L15.0025 24.8976L15.6209 25.7376L17.4098 27.4955L17.7706 27.5097C17.8552 27.5097 17.881 27.733 17.9068 27.811L18.3632 27.9527C18.8159 28.2186 19.692 28.4667 19.7619 28.4277L20.3251 28.1229L21.4698 26.9993L21.8895 26.5102L22.3164 26.0282L22.3275 26.0353Z" fill="#1C1C3C"/>
</svg>
